<mxfile host="app.diagrams.net" agent="Mozilla/5.0 (Windows NT 10.0; Win64; x64) AppleWebKit/537.36 (KHTML, like Gecko) Chrome/136.0.0.0 Safari/537.36" version="27.0.5">
  <diagram name="Sayfa -1" id="Fi6pP0G8A5t9e3pWdJhl">
    <mxGraphModel dx="939" dy="1380" grid="1" gridSize="10" guides="1" tooltips="1" connect="1" arrows="1" fold="1" page="1" pageScale="1" pageWidth="827" pageHeight="1169" math="0" shadow="0">
      <root>
        <mxCell id="0" />
        <mxCell id="1" parent="0" />
        <mxCell id="GQyiRIx8htHbgeyuX6UJ-1" value="KULLANICI" style="rounded=0;whiteSpace=wrap;html=1;" parent="1" vertex="1">
          <mxGeometry x="340" y="1620" width="120" height="60" as="geometry" />
        </mxCell>
        <mxCell id="GQyiRIx8htHbgeyuX6UJ-2" value="&lt;font face=&quot;Times New Roman&quot;&gt;&lt;span style=&quot;font-size: 24px;&quot;&gt;MÜZİK VE PODCAST PROJESİ&lt;/span&gt;&lt;/font&gt;" style="text;html=1;align=center;verticalAlign=middle;whiteSpace=wrap;rounded=0;" parent="1" vertex="1">
          <mxGeometry x="54" y="30" width="720" height="30" as="geometry" />
        </mxCell>
        <mxCell id="GQyiRIx8htHbgeyuX6UJ-3" value="" style="endArrow=classic;html=1;rounded=0;exitX=1;exitY=0.5;exitDx=0;exitDy=0;entryX=0;entryY=0.5;entryDx=0;entryDy=0;" parent="1" source="GQyiRIx8htHbgeyuX6UJ-1" target="GQyiRIx8htHbgeyuX6UJ-4" edge="1">
          <mxGeometry width="50" height="50" relative="1" as="geometry">
            <mxPoint x="450" y="1730" as="sourcePoint" />
            <mxPoint x="510" y="1720" as="targetPoint" />
          </mxGeometry>
        </mxCell>
        <mxCell id="GQyiRIx8htHbgeyuX6UJ-4" value="&lt;u&gt;Kullanıcı_ID&lt;/u&gt;" style="ellipse;whiteSpace=wrap;html=1;" parent="1" vertex="1">
          <mxGeometry x="530" y="1640" width="110" height="70" as="geometry" />
        </mxCell>
        <mxCell id="GQyiRIx8htHbgeyuX6UJ-5" value="Kullanıcı_adı" style="ellipse;whiteSpace=wrap;html=1;" parent="1" vertex="1">
          <mxGeometry x="440" y="1720" width="110" height="70" as="geometry" />
        </mxCell>
        <mxCell id="GQyiRIx8htHbgeyuX6UJ-6" value="E_mail" style="ellipse;whiteSpace=wrap;html=1;" parent="1" vertex="1">
          <mxGeometry x="250" y="1720" width="110" height="70" as="geometry" />
        </mxCell>
        <mxCell id="GQyiRIx8htHbgeyuX6UJ-7" value="" style="endArrow=classic;html=1;rounded=0;exitX=1;exitY=1;exitDx=0;exitDy=0;entryX=0.5;entryY=0;entryDx=0;entryDy=0;" parent="1" source="GQyiRIx8htHbgeyuX6UJ-1" target="GQyiRIx8htHbgeyuX6UJ-5" edge="1">
          <mxGeometry width="50" height="50" relative="1" as="geometry">
            <mxPoint x="470" y="1690" as="sourcePoint" />
            <mxPoint x="545" y="1730" as="targetPoint" />
          </mxGeometry>
        </mxCell>
        <mxCell id="GQyiRIx8htHbgeyuX6UJ-8" value="" style="endArrow=classic;html=1;rounded=0;exitX=0;exitY=1;exitDx=0;exitDy=0;entryX=0.5;entryY=0;entryDx=0;entryDy=0;" parent="1" source="GQyiRIx8htHbgeyuX6UJ-1" target="GQyiRIx8htHbgeyuX6UJ-6" edge="1">
          <mxGeometry width="50" height="50" relative="1" as="geometry">
            <mxPoint x="410" y="1690" as="sourcePoint" />
            <mxPoint x="410" y="1730" as="targetPoint" />
          </mxGeometry>
        </mxCell>
        <mxCell id="GQyiRIx8htHbgeyuX6UJ-9" value="Şifre" style="ellipse;whiteSpace=wrap;html=1;" parent="1" vertex="1">
          <mxGeometry x="160" y="1640" width="110" height="70" as="geometry" />
        </mxCell>
        <mxCell id="GQyiRIx8htHbgeyuX6UJ-10" value="" style="endArrow=classic;html=1;rounded=0;exitX=0;exitY=0.5;exitDx=0;exitDy=0;entryX=1;entryY=0.5;entryDx=0;entryDy=0;" parent="1" source="GQyiRIx8htHbgeyuX6UJ-1" target="GQyiRIx8htHbgeyuX6UJ-9" edge="1">
          <mxGeometry width="50" height="50" relative="1" as="geometry">
            <mxPoint x="350" y="1690" as="sourcePoint" />
            <mxPoint x="275" y="1730" as="targetPoint" />
          </mxGeometry>
        </mxCell>
        <mxCell id="GQyiRIx8htHbgeyuX6UJ-11" value="ŞARKICI" style="rounded=0;whiteSpace=wrap;html=1;" parent="1" vertex="1">
          <mxGeometry x="340" y="180" width="120" height="60" as="geometry" />
        </mxCell>
        <mxCell id="GQyiRIx8htHbgeyuX6UJ-12" value="&lt;u&gt;Şarkıcı_ID&lt;/u&gt;" style="ellipse;whiteSpace=wrap;html=1;" parent="1" vertex="1">
          <mxGeometry x="440" y="280" width="110" height="70" as="geometry" />
        </mxCell>
        <mxCell id="GQyiRIx8htHbgeyuX6UJ-13" value="" style="endArrow=classic;html=1;rounded=0;exitX=1;exitY=1;exitDx=0;exitDy=0;entryX=0.5;entryY=0;entryDx=0;entryDy=0;" parent="1" source="GQyiRIx8htHbgeyuX6UJ-11" target="GQyiRIx8htHbgeyuX6UJ-12" edge="1">
          <mxGeometry width="50" height="50" relative="1" as="geometry">
            <mxPoint x="470" y="-10" as="sourcePoint" />
            <mxPoint x="505" y="30" as="targetPoint" />
          </mxGeometry>
        </mxCell>
        <mxCell id="GQyiRIx8htHbgeyuX6UJ-14" value="Şarkıcı_adı" style="ellipse;whiteSpace=wrap;html=1;" parent="1" vertex="1">
          <mxGeometry x="240" y="280" width="110" height="70" as="geometry" />
        </mxCell>
        <mxCell id="GQyiRIx8htHbgeyuX6UJ-15" value="Biyografi" style="ellipse;whiteSpace=wrap;html=1;" parent="1" vertex="1">
          <mxGeometry x="140" y="210" width="110" height="70" as="geometry" />
        </mxCell>
        <mxCell id="GQyiRIx8htHbgeyuX6UJ-16" value="" style="endArrow=classic;html=1;rounded=0;exitX=0;exitY=1;exitDx=0;exitDy=0;entryX=0.5;entryY=0;entryDx=0;entryDy=0;" parent="1" source="GQyiRIx8htHbgeyuX6UJ-11" target="GQyiRIx8htHbgeyuX6UJ-14" edge="1">
          <mxGeometry width="50" height="50" relative="1" as="geometry">
            <mxPoint x="470" y="250" as="sourcePoint" />
            <mxPoint x="518" y="287" as="targetPoint" />
          </mxGeometry>
        </mxCell>
        <mxCell id="GQyiRIx8htHbgeyuX6UJ-17" value="" style="endArrow=classic;html=1;rounded=0;exitX=0;exitY=0.5;exitDx=0;exitDy=0;entryX=1;entryY=0.5;entryDx=0;entryDy=0;" parent="1" source="GQyiRIx8htHbgeyuX6UJ-11" target="GQyiRIx8htHbgeyuX6UJ-15" edge="1">
          <mxGeometry width="50" height="50" relative="1" as="geometry">
            <mxPoint x="350" y="250" as="sourcePoint" />
            <mxPoint x="305" y="290" as="targetPoint" />
          </mxGeometry>
        </mxCell>
        <mxCell id="GQyiRIx8htHbgeyuX6UJ-18" value="Aylık_dinleyici" style="ellipse;whiteSpace=wrap;html=1;" parent="1" vertex="1">
          <mxGeometry x="550" y="200" width="110" height="70" as="geometry" />
        </mxCell>
        <mxCell id="GQyiRIx8htHbgeyuX6UJ-19" value="" style="endArrow=classic;html=1;rounded=0;exitX=1;exitY=0.5;exitDx=0;exitDy=0;entryX=0;entryY=0.5;entryDx=0;entryDy=0;" parent="1" source="GQyiRIx8htHbgeyuX6UJ-11" target="GQyiRIx8htHbgeyuX6UJ-18" edge="1">
          <mxGeometry width="50" height="50" relative="1" as="geometry">
            <mxPoint x="470" y="250" as="sourcePoint" />
            <mxPoint x="505" y="290" as="targetPoint" />
          </mxGeometry>
        </mxCell>
        <mxCell id="GQyiRIx8htHbgeyuX6UJ-20" value="ŞARKI" style="rounded=0;whiteSpace=wrap;html=1;" parent="1" vertex="1">
          <mxGeometry x="340" y="820" width="120" height="60" as="geometry" />
        </mxCell>
        <mxCell id="GQyiRIx8htHbgeyuX6UJ-21" value="&lt;u&gt;Şarkı_ID&lt;/u&gt;" style="ellipse;whiteSpace=wrap;html=1;" parent="1" vertex="1">
          <mxGeometry x="345" y="970" width="110" height="70" as="geometry" />
        </mxCell>
        <mxCell id="GQyiRIx8htHbgeyuX6UJ-22" value="" style="endArrow=classic;html=1;rounded=0;exitX=0.5;exitY=1;exitDx=0;exitDy=0;entryX=0.5;entryY=0;entryDx=0;entryDy=0;" parent="1" source="GQyiRIx8htHbgeyuX6UJ-20" target="GQyiRIx8htHbgeyuX6UJ-21" edge="1">
          <mxGeometry width="50" height="50" relative="1" as="geometry">
            <mxPoint x="470" y="630" as="sourcePoint" />
            <mxPoint x="505" y="670" as="targetPoint" />
          </mxGeometry>
        </mxCell>
        <mxCell id="GQyiRIx8htHbgeyuX6UJ-23" value="&lt;font style=&quot;color: rgb(255, 0, 0);&quot;&gt;Albüm_ID&lt;/font&gt;" style="ellipse;whiteSpace=wrap;html=1;" parent="1" vertex="1">
          <mxGeometry x="240" y="920" width="110" height="70" as="geometry" />
        </mxCell>
        <mxCell id="GQyiRIx8htHbgeyuX6UJ-24" value="Şarkı_adı" style="ellipse;whiteSpace=wrap;html=1;" parent="1" vertex="1">
          <mxGeometry x="140" y="850" width="110" height="70" as="geometry" />
        </mxCell>
        <mxCell id="GQyiRIx8htHbgeyuX6UJ-25" value="" style="endArrow=classic;html=1;rounded=0;exitX=0;exitY=1;exitDx=0;exitDy=0;entryX=0.5;entryY=0;entryDx=0;entryDy=0;" parent="1" source="GQyiRIx8htHbgeyuX6UJ-20" target="GQyiRIx8htHbgeyuX6UJ-23" edge="1">
          <mxGeometry width="50" height="50" relative="1" as="geometry">
            <mxPoint x="470" y="890" as="sourcePoint" />
            <mxPoint x="518" y="927" as="targetPoint" />
          </mxGeometry>
        </mxCell>
        <mxCell id="GQyiRIx8htHbgeyuX6UJ-26" value="" style="endArrow=classic;html=1;rounded=0;exitX=0;exitY=0.5;exitDx=0;exitDy=0;entryX=1;entryY=0.5;entryDx=0;entryDy=0;" parent="1" source="GQyiRIx8htHbgeyuX6UJ-20" target="GQyiRIx8htHbgeyuX6UJ-24" edge="1">
          <mxGeometry width="50" height="50" relative="1" as="geometry">
            <mxPoint x="350" y="890" as="sourcePoint" />
            <mxPoint x="305" y="930" as="targetPoint" />
          </mxGeometry>
        </mxCell>
        <mxCell id="GQyiRIx8htHbgeyuX6UJ-27" value="Süre" style="ellipse;whiteSpace=wrap;html=1;" parent="1" vertex="1">
          <mxGeometry x="550" y="840" width="110" height="70" as="geometry" />
        </mxCell>
        <mxCell id="GQyiRIx8htHbgeyuX6UJ-28" value="" style="endArrow=classic;html=1;rounded=0;exitX=1;exitY=0.5;exitDx=0;exitDy=0;entryX=0;entryY=0.5;entryDx=0;entryDy=0;" parent="1" source="GQyiRIx8htHbgeyuX6UJ-20" target="GQyiRIx8htHbgeyuX6UJ-27" edge="1">
          <mxGeometry width="50" height="50" relative="1" as="geometry">
            <mxPoint x="470" y="890" as="sourcePoint" />
            <mxPoint x="505" y="930" as="targetPoint" />
          </mxGeometry>
        </mxCell>
        <mxCell id="GQyiRIx8htHbgeyuX6UJ-29" value="Tür" style="ellipse;whiteSpace=wrap;html=1;" parent="1" vertex="1">
          <mxGeometry x="470" y="920" width="110" height="70" as="geometry" />
        </mxCell>
        <mxCell id="GQyiRIx8htHbgeyuX6UJ-30" value="" style="endArrow=classic;html=1;rounded=0;exitX=1;exitY=1;exitDx=0;exitDy=0;entryX=0.5;entryY=0;entryDx=0;entryDy=0;" parent="1" source="GQyiRIx8htHbgeyuX6UJ-20" target="GQyiRIx8htHbgeyuX6UJ-29" edge="1">
          <mxGeometry width="50" height="50" relative="1" as="geometry">
            <mxPoint x="470" y="860" as="sourcePoint" />
            <mxPoint x="560" y="885" as="targetPoint" />
          </mxGeometry>
        </mxCell>
        <mxCell id="GQyiRIx8htHbgeyuX6UJ-31" value="PODCAST" style="rounded=0;whiteSpace=wrap;html=1;" parent="1" vertex="1">
          <mxGeometry x="340" y="1250" width="120" height="60" as="geometry" />
        </mxCell>
        <mxCell id="GQyiRIx8htHbgeyuX6UJ-32" value="&lt;u&gt;Podcast_ID&lt;/u&gt;" style="ellipse;whiteSpace=wrap;html=1;" parent="1" vertex="1">
          <mxGeometry x="345" y="1400" width="110" height="70" as="geometry" />
        </mxCell>
        <mxCell id="GQyiRIx8htHbgeyuX6UJ-33" value="" style="endArrow=classic;html=1;rounded=0;exitX=0.5;exitY=1;exitDx=0;exitDy=0;entryX=0.5;entryY=0;entryDx=0;entryDy=0;" parent="1" source="GQyiRIx8htHbgeyuX6UJ-31" target="GQyiRIx8htHbgeyuX6UJ-32" edge="1">
          <mxGeometry width="50" height="50" relative="1" as="geometry">
            <mxPoint x="470" y="1060" as="sourcePoint" />
            <mxPoint x="505" y="1100" as="targetPoint" />
          </mxGeometry>
        </mxCell>
        <mxCell id="GQyiRIx8htHbgeyuX6UJ-34" value="&lt;font style=&quot;color: rgb(0, 0, 0);&quot;&gt;Tür&lt;/font&gt;" style="ellipse;whiteSpace=wrap;html=1;" parent="1" vertex="1">
          <mxGeometry x="240" y="1350" width="110" height="70" as="geometry" />
        </mxCell>
        <mxCell id="GQyiRIx8htHbgeyuX6UJ-35" value="Başlık" style="ellipse;whiteSpace=wrap;html=1;" parent="1" vertex="1">
          <mxGeometry x="140" y="1280" width="110" height="70" as="geometry" />
        </mxCell>
        <mxCell id="GQyiRIx8htHbgeyuX6UJ-36" value="" style="endArrow=classic;html=1;rounded=0;exitX=0;exitY=1;exitDx=0;exitDy=0;entryX=0.5;entryY=0;entryDx=0;entryDy=0;" parent="1" source="GQyiRIx8htHbgeyuX6UJ-31" target="GQyiRIx8htHbgeyuX6UJ-34" edge="1">
          <mxGeometry width="50" height="50" relative="1" as="geometry">
            <mxPoint x="470" y="1320" as="sourcePoint" />
            <mxPoint x="518" y="1357" as="targetPoint" />
          </mxGeometry>
        </mxCell>
        <mxCell id="GQyiRIx8htHbgeyuX6UJ-37" value="" style="endArrow=classic;html=1;rounded=0;exitX=0;exitY=0.5;exitDx=0;exitDy=0;entryX=1;entryY=0.5;entryDx=0;entryDy=0;" parent="1" source="GQyiRIx8htHbgeyuX6UJ-31" target="GQyiRIx8htHbgeyuX6UJ-35" edge="1">
          <mxGeometry width="50" height="50" relative="1" as="geometry">
            <mxPoint x="350" y="1320" as="sourcePoint" />
            <mxPoint x="305" y="1360" as="targetPoint" />
          </mxGeometry>
        </mxCell>
        <mxCell id="GQyiRIx8htHbgeyuX6UJ-38" value="Hakkında" style="ellipse;whiteSpace=wrap;html=1;" parent="1" vertex="1">
          <mxGeometry x="550" y="1270" width="110" height="70" as="geometry" />
        </mxCell>
        <mxCell id="GQyiRIx8htHbgeyuX6UJ-39" value="" style="endArrow=classic;html=1;rounded=0;exitX=1;exitY=0.5;exitDx=0;exitDy=0;entryX=0;entryY=0.5;entryDx=0;entryDy=0;" parent="1" source="GQyiRIx8htHbgeyuX6UJ-31" target="GQyiRIx8htHbgeyuX6UJ-38" edge="1">
          <mxGeometry width="50" height="50" relative="1" as="geometry">
            <mxPoint x="470" y="1320" as="sourcePoint" />
            <mxPoint x="505" y="1360" as="targetPoint" />
          </mxGeometry>
        </mxCell>
        <mxCell id="GQyiRIx8htHbgeyuX6UJ-40" value="Yayıncı" style="ellipse;whiteSpace=wrap;html=1;" parent="1" vertex="1">
          <mxGeometry x="470" y="1350" width="110" height="70" as="geometry" />
        </mxCell>
        <mxCell id="GQyiRIx8htHbgeyuX6UJ-41" value="" style="endArrow=classic;html=1;rounded=0;exitX=1;exitY=1;exitDx=0;exitDy=0;entryX=0.5;entryY=0;entryDx=0;entryDy=0;" parent="1" source="GQyiRIx8htHbgeyuX6UJ-31" target="GQyiRIx8htHbgeyuX6UJ-40" edge="1">
          <mxGeometry width="50" height="50" relative="1" as="geometry">
            <mxPoint x="470" y="1290" as="sourcePoint" />
            <mxPoint x="560" y="1315" as="targetPoint" />
          </mxGeometry>
        </mxCell>
        <mxCell id="GQyiRIx8htHbgeyuX6UJ-42" value="ÖNERİ SİSTEMİ" style="rounded=0;whiteSpace=wrap;html=1;" parent="1" vertex="1">
          <mxGeometry x="330" y="2900" width="120" height="60" as="geometry" />
        </mxCell>
        <mxCell id="GQyiRIx8htHbgeyuX6UJ-43" value="&lt;u&gt;Öneri_ID&lt;/u&gt;" style="ellipse;whiteSpace=wrap;html=1;" parent="1" vertex="1">
          <mxGeometry x="335" y="3050" width="110" height="70" as="geometry" />
        </mxCell>
        <mxCell id="GQyiRIx8htHbgeyuX6UJ-44" value="" style="endArrow=classic;html=1;rounded=0;exitX=0.5;exitY=1;exitDx=0;exitDy=0;entryX=0.5;entryY=0;entryDx=0;entryDy=0;" parent="1" source="GQyiRIx8htHbgeyuX6UJ-42" target="GQyiRIx8htHbgeyuX6UJ-43" edge="1">
          <mxGeometry width="50" height="50" relative="1" as="geometry">
            <mxPoint x="460" y="2710" as="sourcePoint" />
            <mxPoint x="495" y="2750" as="targetPoint" />
          </mxGeometry>
        </mxCell>
        <mxCell id="GQyiRIx8htHbgeyuX6UJ-45" value="&lt;font style=&quot;color: rgb(255, 0, 0);&quot;&gt;Kullanıcı_ID&lt;/font&gt;" style="ellipse;whiteSpace=wrap;html=1;" parent="1" vertex="1">
          <mxGeometry x="230" y="3000" width="110" height="70" as="geometry" />
        </mxCell>
        <mxCell id="GQyiRIx8htHbgeyuX6UJ-46" value="&lt;font style=&quot;color: rgb(255, 0, 0);&quot;&gt;Sarki_ID&lt;/font&gt;" style="ellipse;whiteSpace=wrap;html=1;" parent="1" vertex="1">
          <mxGeometry x="130" y="2930" width="110" height="70" as="geometry" />
        </mxCell>
        <mxCell id="GQyiRIx8htHbgeyuX6UJ-47" value="" style="endArrow=classic;html=1;rounded=0;exitX=0;exitY=1;exitDx=0;exitDy=0;entryX=0.5;entryY=0;entryDx=0;entryDy=0;" parent="1" source="GQyiRIx8htHbgeyuX6UJ-42" target="GQyiRIx8htHbgeyuX6UJ-45" edge="1">
          <mxGeometry width="50" height="50" relative="1" as="geometry">
            <mxPoint x="460" y="2970" as="sourcePoint" />
            <mxPoint x="508" y="3007" as="targetPoint" />
          </mxGeometry>
        </mxCell>
        <mxCell id="GQyiRIx8htHbgeyuX6UJ-48" value="" style="endArrow=classic;html=1;rounded=0;exitX=0;exitY=0.5;exitDx=0;exitDy=0;entryX=1;entryY=0.5;entryDx=0;entryDy=0;" parent="1" source="GQyiRIx8htHbgeyuX6UJ-42" target="GQyiRIx8htHbgeyuX6UJ-46" edge="1">
          <mxGeometry width="50" height="50" relative="1" as="geometry">
            <mxPoint x="340" y="2970" as="sourcePoint" />
            <mxPoint x="295" y="3010" as="targetPoint" />
          </mxGeometry>
        </mxCell>
        <mxCell id="GQyiRIx8htHbgeyuX6UJ-49" value="Öneri_Tarihi" style="ellipse;whiteSpace=wrap;html=1;" parent="1" vertex="1">
          <mxGeometry x="540" y="2920" width="110" height="70" as="geometry" />
        </mxCell>
        <mxCell id="GQyiRIx8htHbgeyuX6UJ-50" value="" style="endArrow=classic;html=1;rounded=0;exitX=1;exitY=0.5;exitDx=0;exitDy=0;entryX=0;entryY=0.5;entryDx=0;entryDy=0;" parent="1" source="GQyiRIx8htHbgeyuX6UJ-42" target="GQyiRIx8htHbgeyuX6UJ-49" edge="1">
          <mxGeometry width="50" height="50" relative="1" as="geometry">
            <mxPoint x="460" y="2970" as="sourcePoint" />
            <mxPoint x="495" y="3010" as="targetPoint" />
          </mxGeometry>
        </mxCell>
        <mxCell id="GQyiRIx8htHbgeyuX6UJ-51" value="&lt;font style=&quot;color: rgb(255, 0, 0);&quot;&gt;Podcast_ID&lt;/font&gt;" style="ellipse;whiteSpace=wrap;html=1;" parent="1" vertex="1">
          <mxGeometry x="460" y="3000" width="110" height="70" as="geometry" />
        </mxCell>
        <mxCell id="GQyiRIx8htHbgeyuX6UJ-52" value="" style="endArrow=classic;html=1;rounded=0;exitX=1;exitY=1;exitDx=0;exitDy=0;entryX=0.5;entryY=0;entryDx=0;entryDy=0;" parent="1" source="GQyiRIx8htHbgeyuX6UJ-42" target="GQyiRIx8htHbgeyuX6UJ-51" edge="1">
          <mxGeometry width="50" height="50" relative="1" as="geometry">
            <mxPoint x="460" y="2940" as="sourcePoint" />
            <mxPoint x="550" y="2965" as="targetPoint" />
          </mxGeometry>
        </mxCell>
        <mxCell id="GQyiRIx8htHbgeyuX6UJ-53" value="ALBÜM" style="rounded=0;whiteSpace=wrap;html=1;" parent="1" vertex="1">
          <mxGeometry x="340" y="470" width="120" height="60" as="geometry" />
        </mxCell>
        <mxCell id="GQyiRIx8htHbgeyuX6UJ-54" value="" style="endArrow=classic;html=1;rounded=0;exitX=1;exitY=0.5;exitDx=0;exitDy=0;entryX=0;entryY=0.5;entryDx=0;entryDy=0;" parent="1" source="GQyiRIx8htHbgeyuX6UJ-53" target="GQyiRIx8htHbgeyuX6UJ-55" edge="1">
          <mxGeometry width="50" height="50" relative="1" as="geometry">
            <mxPoint x="450" y="580" as="sourcePoint" />
            <mxPoint x="510" y="570" as="targetPoint" />
          </mxGeometry>
        </mxCell>
        <mxCell id="GQyiRIx8htHbgeyuX6UJ-55" value="Çıkış_Tarihi" style="ellipse;whiteSpace=wrap;html=1;" parent="1" vertex="1">
          <mxGeometry x="530" y="490" width="110" height="70" as="geometry" />
        </mxCell>
        <mxCell id="GQyiRIx8htHbgeyuX6UJ-56" value="Album_adı" style="ellipse;whiteSpace=wrap;html=1;" parent="1" vertex="1">
          <mxGeometry x="440" y="570" width="110" height="70" as="geometry" />
        </mxCell>
        <mxCell id="GQyiRIx8htHbgeyuX6UJ-57" value="&lt;font style=&quot;color: rgb(255, 0, 0);&quot;&gt;Sarkıcı_ID&lt;/font&gt;" style="ellipse;whiteSpace=wrap;html=1;" parent="1" vertex="1">
          <mxGeometry x="250" y="570" width="110" height="70" as="geometry" />
        </mxCell>
        <mxCell id="GQyiRIx8htHbgeyuX6UJ-58" value="" style="endArrow=classic;html=1;rounded=0;exitX=1;exitY=1;exitDx=0;exitDy=0;entryX=0.5;entryY=0;entryDx=0;entryDy=0;" parent="1" source="GQyiRIx8htHbgeyuX6UJ-53" target="GQyiRIx8htHbgeyuX6UJ-56" edge="1">
          <mxGeometry width="50" height="50" relative="1" as="geometry">
            <mxPoint x="470" y="540" as="sourcePoint" />
            <mxPoint x="545" y="580" as="targetPoint" />
          </mxGeometry>
        </mxCell>
        <mxCell id="GQyiRIx8htHbgeyuX6UJ-59" value="" style="endArrow=classic;html=1;rounded=0;exitX=0;exitY=1;exitDx=0;exitDy=0;entryX=0.5;entryY=0;entryDx=0;entryDy=0;" parent="1" source="GQyiRIx8htHbgeyuX6UJ-53" target="GQyiRIx8htHbgeyuX6UJ-57" edge="1">
          <mxGeometry width="50" height="50" relative="1" as="geometry">
            <mxPoint x="410" y="540" as="sourcePoint" />
            <mxPoint x="410" y="580" as="targetPoint" />
          </mxGeometry>
        </mxCell>
        <mxCell id="GQyiRIx8htHbgeyuX6UJ-60" value="&lt;u&gt;Album_ID&lt;/u&gt;" style="ellipse;whiteSpace=wrap;html=1;" parent="1" vertex="1">
          <mxGeometry x="160" y="490" width="110" height="70" as="geometry" />
        </mxCell>
        <mxCell id="GQyiRIx8htHbgeyuX6UJ-61" value="" style="endArrow=classic;html=1;rounded=0;exitX=0;exitY=0.5;exitDx=0;exitDy=0;entryX=1;entryY=0.5;entryDx=0;entryDy=0;" parent="1" source="GQyiRIx8htHbgeyuX6UJ-53" target="GQyiRIx8htHbgeyuX6UJ-60" edge="1">
          <mxGeometry width="50" height="50" relative="1" as="geometry">
            <mxPoint x="350" y="540" as="sourcePoint" />
            <mxPoint x="275" y="580" as="targetPoint" />
          </mxGeometry>
        </mxCell>
        <mxCell id="GQyiRIx8htHbgeyuX6UJ-62" value="ÇALMA LİSTESİ" style="rounded=0;whiteSpace=wrap;html=1;" parent="1" vertex="1">
          <mxGeometry x="330" y="2450" width="120" height="60" as="geometry" />
        </mxCell>
        <mxCell id="GQyiRIx8htHbgeyuX6UJ-63" value="&lt;u&gt;Liste_ID&lt;/u&gt;" style="ellipse;whiteSpace=wrap;html=1;" parent="1" vertex="1">
          <mxGeometry x="335" y="2610" width="110" height="70" as="geometry" />
        </mxCell>
        <mxCell id="GQyiRIx8htHbgeyuX6UJ-64" value="&lt;font style=&quot;color: rgb(255, 0, 0);&quot;&gt;Kullanıcı_ID&lt;/font&gt;" style="ellipse;whiteSpace=wrap;html=1;" parent="1" vertex="1">
          <mxGeometry x="420" y="2540" width="110" height="70" as="geometry" />
        </mxCell>
        <mxCell id="GQyiRIx8htHbgeyuX6UJ-65" value="&lt;font style=&quot;color: rgb(255, 0, 0);&quot;&gt;Sarki_ID&lt;/font&gt;" style="ellipse;whiteSpace=wrap;html=1;" parent="1" vertex="1">
          <mxGeometry x="260" y="2540" width="110" height="70" as="geometry" />
        </mxCell>
        <mxCell id="GQyiRIx8htHbgeyuX6UJ-66" value="Liste_adı" style="ellipse;whiteSpace=wrap;html=1;" parent="1" vertex="1">
          <mxGeometry x="140" y="2540" width="110" height="70" as="geometry" />
        </mxCell>
        <mxCell id="GQyiRIx8htHbgeyuX6UJ-67" value="Oluşturan" style="ellipse;whiteSpace=wrap;html=1;" parent="1" vertex="1">
          <mxGeometry x="540" y="2540" width="110" height="70" as="geometry" />
        </mxCell>
        <mxCell id="GQyiRIx8htHbgeyuX6UJ-68" value="Gizlilik" style="ellipse;whiteSpace=wrap;html=1;" parent="1" vertex="1">
          <mxGeometry x="610" y="2450" width="110" height="70" as="geometry" />
        </mxCell>
        <mxCell id="GQyiRIx8htHbgeyuX6UJ-69" value="" style="endArrow=classic;html=1;rounded=0;entryX=0.5;entryY=0;entryDx=0;entryDy=0;exitX=0.33;exitY=1.014;exitDx=0;exitDy=0;exitPerimeter=0;" parent="1" source="GQyiRIx8htHbgeyuX6UJ-62" target="GQyiRIx8htHbgeyuX6UJ-65" edge="1">
          <mxGeometry width="50" height="50" relative="1" as="geometry">
            <mxPoint x="305" y="2490" as="sourcePoint" />
            <mxPoint x="260" y="2520" as="targetPoint" />
          </mxGeometry>
        </mxCell>
        <mxCell id="GQyiRIx8htHbgeyuX6UJ-70" value="" style="endArrow=classic;html=1;rounded=0;entryX=0.5;entryY=0;entryDx=0;entryDy=0;exitX=0.5;exitY=1;exitDx=0;exitDy=0;" parent="1" source="GQyiRIx8htHbgeyuX6UJ-62" target="GQyiRIx8htHbgeyuX6UJ-63" edge="1">
          <mxGeometry width="50" height="50" relative="1" as="geometry">
            <mxPoint x="340" y="2520" as="sourcePoint" />
            <mxPoint x="275" y="2564" as="targetPoint" />
          </mxGeometry>
        </mxCell>
        <mxCell id="GQyiRIx8htHbgeyuX6UJ-71" value="" style="endArrow=classic;html=1;rounded=0;entryX=0.5;entryY=0;entryDx=0;entryDy=0;exitX=0.75;exitY=1;exitDx=0;exitDy=0;" parent="1" source="GQyiRIx8htHbgeyuX6UJ-62" target="GQyiRIx8htHbgeyuX6UJ-64" edge="1">
          <mxGeometry width="50" height="50" relative="1" as="geometry">
            <mxPoint x="370" y="2520" as="sourcePoint" />
            <mxPoint x="345" y="2590" as="targetPoint" />
          </mxGeometry>
        </mxCell>
        <mxCell id="GQyiRIx8htHbgeyuX6UJ-72" value="" style="endArrow=classic;html=1;rounded=0;entryX=0.5;entryY=0;entryDx=0;entryDy=0;exitX=1;exitY=1;exitDx=0;exitDy=0;" parent="1" source="GQyiRIx8htHbgeyuX6UJ-62" target="GQyiRIx8htHbgeyuX6UJ-67" edge="1">
          <mxGeometry width="50" height="50" relative="1" as="geometry">
            <mxPoint x="430" y="2520" as="sourcePoint" />
            <mxPoint x="465" y="2590" as="targetPoint" />
          </mxGeometry>
        </mxCell>
        <mxCell id="GQyiRIx8htHbgeyuX6UJ-73" value="" style="endArrow=classic;html=1;rounded=0;entryX=0.5;entryY=0;entryDx=0;entryDy=0;exitX=0;exitY=1;exitDx=0;exitDy=0;" parent="1" source="GQyiRIx8htHbgeyuX6UJ-62" target="GQyiRIx8htHbgeyuX6UJ-66" edge="1">
          <mxGeometry width="50" height="50" relative="1" as="geometry">
            <mxPoint x="380" y="2521" as="sourcePoint" />
            <mxPoint x="355" y="2584" as="targetPoint" />
          </mxGeometry>
        </mxCell>
        <mxCell id="GQyiRIx8htHbgeyuX6UJ-74" value="" style="endArrow=classic;html=1;rounded=0;entryX=0;entryY=0.5;entryDx=0;entryDy=0;exitX=1;exitY=0.5;exitDx=0;exitDy=0;" parent="1" source="GQyiRIx8htHbgeyuX6UJ-62" target="GQyiRIx8htHbgeyuX6UJ-68" edge="1">
          <mxGeometry width="50" height="50" relative="1" as="geometry">
            <mxPoint x="460" y="2520" as="sourcePoint" />
            <mxPoint x="595" y="2580" as="targetPoint" />
          </mxGeometry>
        </mxCell>
        <mxCell id="GQyiRIx8htHbgeyuX6UJ-75" value="DİNLEME GEÇMİŞİ" style="rounded=0;whiteSpace=wrap;html=1;" parent="1" vertex="1">
          <mxGeometry x="339" y="1965" width="120" height="60" as="geometry" />
        </mxCell>
        <mxCell id="GQyiRIx8htHbgeyuX6UJ-76" value="&lt;u&gt;Gecmis_ID&lt;/u&gt;" style="ellipse;whiteSpace=wrap;html=1;" parent="1" vertex="1">
          <mxGeometry x="344" y="2125" width="110" height="70" as="geometry" />
        </mxCell>
        <mxCell id="GQyiRIx8htHbgeyuX6UJ-77" value="&lt;font style=&quot;color: rgb(255, 0, 0);&quot;&gt;Kullanıcı_ID&lt;/font&gt;" style="ellipse;whiteSpace=wrap;html=1;" parent="1" vertex="1">
          <mxGeometry x="429" y="2055" width="110" height="70" as="geometry" />
        </mxCell>
        <mxCell id="GQyiRIx8htHbgeyuX6UJ-78" value="&lt;font style=&quot;color: rgb(255, 0, 0);&quot;&gt;Sarki_ID&lt;/font&gt;" style="ellipse;whiteSpace=wrap;html=1;" parent="1" vertex="1">
          <mxGeometry x="269" y="2055" width="110" height="70" as="geometry" />
        </mxCell>
        <mxCell id="GQyiRIx8htHbgeyuX6UJ-79" value="Dinleme_Tarihi" style="ellipse;whiteSpace=wrap;html=1;" parent="1" vertex="1">
          <mxGeometry x="119" y="1960" width="110" height="70" as="geometry" />
        </mxCell>
        <mxCell id="GQyiRIx8htHbgeyuX6UJ-80" value="Dinleme_Sayısı" style="ellipse;whiteSpace=wrap;html=1;" parent="1" vertex="1">
          <mxGeometry x="549" y="2055" width="110" height="70" as="geometry" />
        </mxCell>
        <mxCell id="GQyiRIx8htHbgeyuX6UJ-81" value="Beğeni" style="ellipse;whiteSpace=wrap;html=1;" parent="1" vertex="1">
          <mxGeometry x="599" y="1960" width="110" height="70" as="geometry" />
        </mxCell>
        <mxCell id="GQyiRIx8htHbgeyuX6UJ-82" value="" style="endArrow=classic;html=1;rounded=0;entryX=0.5;entryY=0;entryDx=0;entryDy=0;exitX=0.33;exitY=1.014;exitDx=0;exitDy=0;exitPerimeter=0;" parent="1" source="GQyiRIx8htHbgeyuX6UJ-75" target="GQyiRIx8htHbgeyuX6UJ-78" edge="1">
          <mxGeometry width="50" height="50" relative="1" as="geometry">
            <mxPoint x="314" y="2005" as="sourcePoint" />
            <mxPoint x="269" y="2035" as="targetPoint" />
          </mxGeometry>
        </mxCell>
        <mxCell id="GQyiRIx8htHbgeyuX6UJ-83" value="" style="endArrow=classic;html=1;rounded=0;entryX=0.5;entryY=0;entryDx=0;entryDy=0;exitX=0.5;exitY=1;exitDx=0;exitDy=0;" parent="1" source="GQyiRIx8htHbgeyuX6UJ-75" target="GQyiRIx8htHbgeyuX6UJ-76" edge="1">
          <mxGeometry width="50" height="50" relative="1" as="geometry">
            <mxPoint x="349" y="2035" as="sourcePoint" />
            <mxPoint x="284" y="2079" as="targetPoint" />
          </mxGeometry>
        </mxCell>
        <mxCell id="GQyiRIx8htHbgeyuX6UJ-84" value="" style="endArrow=classic;html=1;rounded=0;entryX=0.5;entryY=0;entryDx=0;entryDy=0;exitX=0.75;exitY=1;exitDx=0;exitDy=0;" parent="1" source="GQyiRIx8htHbgeyuX6UJ-75" target="GQyiRIx8htHbgeyuX6UJ-77" edge="1">
          <mxGeometry width="50" height="50" relative="1" as="geometry">
            <mxPoint x="379" y="2035" as="sourcePoint" />
            <mxPoint x="354" y="2105" as="targetPoint" />
          </mxGeometry>
        </mxCell>
        <mxCell id="GQyiRIx8htHbgeyuX6UJ-85" value="" style="endArrow=classic;html=1;rounded=0;entryX=0.5;entryY=0;entryDx=0;entryDy=0;exitX=1;exitY=1;exitDx=0;exitDy=0;" parent="1" source="GQyiRIx8htHbgeyuX6UJ-75" target="GQyiRIx8htHbgeyuX6UJ-80" edge="1">
          <mxGeometry width="50" height="50" relative="1" as="geometry">
            <mxPoint x="439" y="2035" as="sourcePoint" />
            <mxPoint x="474" y="2105" as="targetPoint" />
          </mxGeometry>
        </mxCell>
        <mxCell id="GQyiRIx8htHbgeyuX6UJ-86" value="" style="endArrow=classic;html=1;rounded=0;entryX=1;entryY=0.5;entryDx=0;entryDy=0;exitX=0;exitY=0.5;exitDx=0;exitDy=0;" parent="1" source="GQyiRIx8htHbgeyuX6UJ-75" target="GQyiRIx8htHbgeyuX6UJ-79" edge="1">
          <mxGeometry width="50" height="50" relative="1" as="geometry">
            <mxPoint x="389" y="2036" as="sourcePoint" />
            <mxPoint x="364" y="2099" as="targetPoint" />
          </mxGeometry>
        </mxCell>
        <mxCell id="GQyiRIx8htHbgeyuX6UJ-87" value="" style="endArrow=classic;html=1;rounded=0;entryX=0;entryY=0.5;entryDx=0;entryDy=0;exitX=1;exitY=0.5;exitDx=0;exitDy=0;" parent="1" source="GQyiRIx8htHbgeyuX6UJ-75" target="GQyiRIx8htHbgeyuX6UJ-81" edge="1">
          <mxGeometry width="50" height="50" relative="1" as="geometry">
            <mxPoint x="469" y="2035" as="sourcePoint" />
            <mxPoint x="604" y="2095" as="targetPoint" />
          </mxGeometry>
        </mxCell>
        <mxCell id="GQyiRIx8htHbgeyuX6UJ-88" value="&lt;font color=&quot;#ff0000&quot;&gt;Podcast_ID&lt;/font&gt;" style="ellipse;whiteSpace=wrap;html=1;" parent="1" vertex="1">
          <mxGeometry x="149" y="2055" width="110" height="70" as="geometry" />
        </mxCell>
        <mxCell id="GQyiRIx8htHbgeyuX6UJ-89" value="" style="endArrow=classic;html=1;rounded=0;entryX=0.5;entryY=0;entryDx=0;entryDy=0;exitX=0;exitY=1;exitDx=0;exitDy=0;" parent="1" source="GQyiRIx8htHbgeyuX6UJ-75" target="GQyiRIx8htHbgeyuX6UJ-88" edge="1">
          <mxGeometry width="50" height="50" relative="1" as="geometry">
            <mxPoint x="389" y="2036" as="sourcePoint" />
            <mxPoint x="334" y="2065" as="targetPoint" />
          </mxGeometry>
        </mxCell>
        <mxCell id="GQyiRIx8htHbgeyuX6UJ-90" value="&lt;font face=&quot;Times New Roman&quot;&gt;&lt;span style=&quot;font-size: 21px;&quot;&gt;ER DİYAGRAMLARI&lt;/span&gt;&lt;/font&gt;" style="text;html=1;align=center;verticalAlign=middle;whiteSpace=wrap;rounded=0;" parent="1" vertex="1">
          <mxGeometry x="54" y="70" width="720" height="30" as="geometry" />
        </mxCell>
      </root>
    </mxGraphModel>
  </diagram>
</mxfile>
